# xmcd
#
# Track frame offsets:
#	150
#	14856
#	27390
#	43997
#	55653
#	68047
#	86286
#	101617
#	109829
#	127413
#	148271
#	160399
#	180808
#	196733
#
# Disc length: 2819 seconds
#
# Revision: 1
# Processed by: cddbd v1.5.2PL0 Copyright (c) Steve Scherf et al.
# Submitted via: audiograbber 1.83.01
#
DISCID=c60b010e
DTITLE=Michal Tucny - Ve Valdickym lapaku
DYEAR=1900
DGENRE=Country
TTITLE0=V tyhle skale mi Buh domov dal
TTITLE1=Rovnou,tady rovnou
TTITLE2=Jeste dlouhou cestu mam
TTITLE3=Blues Folsomske veznice
TTITLE4=Osamnela houkani
TTITLE5=Poveste ho vejs
TTITLE6=Rad se brouzdam rosou
TTITLE7=Tucnaci
TTITLE8=Dnesni noc bude dlouha
TTITLE9=Stat mimo zakon
TTITLE10=Odjizdim v dal
TTITLE11=Vsichni jsou uz v Mexiku
TTITLE12=Posledni kovboj
TTITLE13=Chvili spat
EXTD=
EXTT0=
EXTT1=
EXTT2=
EXTT3=
EXTT4=
EXTT5=
EXTT6=
EXTT7=
EXTT8=
EXTT9=
EXTT10=
EXTT11=
EXTT12=
EXTT13=
PLAYORDER=
